<svg width="32" height="32" viewBox="0 0 32 32" fill="none" xmlns="http://www.w3.org/2000/svg">
<path d="M18.2783 8.6123C18.6104 8.6123 18.8447 8.69043 18.9814 8.84668C19.1279 8.99316 19.2012 9.24707 19.2012 9.6084V15.1309C19.2012 15.4727 19.1182 15.7168 18.9521 15.8633C18.7861 16.0098 18.5029 16.083 18.1025 16.083C17.7021 16.083 17.4189 16.0098 17.2529 15.8633C17.0869 15.7168 17.0039 15.4727 17.0039 15.1309V10.6045H13.0928V24.0078H16.5498C16.8818 24.0078 17.1162 24.0859 17.2529 24.2422C17.3994 24.3887 17.4727 24.6426 17.4727 25.0039C17.4727 25.3652 17.3994 25.624 17.2529 25.7803C17.1162 25.9268 16.8818 26 16.5498 26H7.43848C7.10645 26 6.86719 25.9268 6.7207 25.7803C6.58398 25.624 6.51562 25.3652 6.51562 25.0039C6.51562 24.6426 6.58398 24.3887 6.7207 24.2422C6.86719 24.0859 7.10645 24.0078 7.43848 24.0078H10.8955V10.6045H6.98438V15.1309C6.98438 15.4727 6.90137 15.7168 6.73535 15.8633C6.56934 16.0098 6.28613 16.083 5.88574 16.083C5.48535 16.083 5.20215 16.0098 5.03613 15.8633C4.87012 15.7168 4.78711 15.4727 4.78711 15.1309V9.6084C4.78711 9.24707 4.85547 8.99316 4.99219 8.84668C5.13867 8.69043 5.37793 8.6123 5.70996 8.6123H18.2783Z" fill="#FF6F61"/>
<path d="M14.7217 23.3877C14.3896 23.3877 14.1553 23.3096 14.0186 23.1533C13.8721 23.0068 13.7988 22.7529 13.7988 22.3916V16.8691C13.7988 16.5273 13.8818 16.2832 14.0479 16.1367C14.2139 15.9902 14.4971 15.917 14.8975 15.917C15.2979 15.917 15.5811 15.9902 15.7471 16.1367C15.9131 16.2832 15.9961 16.5273 15.9961 16.8691L15.9961 21.3955H19.9072V7.99219H16.4502C16.1182 7.99219 15.8838 7.91406 15.7471 7.75781C15.6006 7.61133 15.5273 7.35742 15.5273 6.99609C15.5273 6.63477 15.6006 6.37598 15.7471 6.21973C15.8838 6.07324 16.1182 6 16.4502 6H25.5615C25.8936 6 26.1328 6.07324 26.2793 6.21973C26.416 6.37598 26.4844 6.63477 26.4844 6.99609C26.4844 7.35742 26.416 7.61133 26.2793 7.75781C26.1328 7.91406 25.8936 7.99219 25.5615 7.99219H22.1045V21.3955H26.0156V16.8691C26.0156 16.5273 26.0986 16.2832 26.2646 16.1367C26.4307 15.9902 26.7139 15.917 27.1143 15.917C27.5146 15.917 27.7979 15.9902 27.9639 16.1367C28.1299 16.2832 28.2129 16.5273 28.2129 16.8691V22.3916C28.2129 22.7529 28.1445 23.0068 28.0078 23.1533C27.8613 23.3096 27.6221 23.3877 27.29 23.3877H14.7217Z" fill="#FF6F61"/>
</svg>
